{"title":"Home made Girlfriend fucked by her BF=MTR=","uid":7057521,"size":72315548,"categoryP":"porn","categoryS":"movie_clips","magnet":"?xt=urn:btih:f2f70ea9942e43c03667cdeda783bcc9a27e67e2&amp;dn=Home+made+Girlfriend+fucked+by+her+BF%3DMTR%3D&amp;tr=udp%3A%2F%2Ftracker.openbittorrent.com%3A80&amp;tr=udp%3A%2F%2Fopen.demonii.com%3A1337&amp;tr=udp%3A%2F%2Ftracker.coppersurfer.tk%3A6969&amp;tr=udp%3A%2F%2Fexodus.desync.com%3A6969","seeders":0,"leechers":1,"uploader":"Devdeep","files":2,"time":1330191261,"description":"General Info\n\nComplete name                    : Home made Girlfriend fucked by her BF=MTR\nFormat                           : AVI\nFormat/Info                      : Audio Video Interleave\nFile size                        : 69.0 MiB\nDuration                         : 12mn 54s\nOverall bit rate                 : 747 Kbps\n\nVideo\nID                               : 0\nFormat                           : MPEG-4 Visual\nCodec ID                         : MP42\nCodec ID/Info                    : Microsoft MPEG-4 v2 (pre-standard)\nCodec ID/Hint                    : Microsoft\nDuration                         : 12mn 54s\nBit rate                         : 649 Kbps\nWidth                            : 240 pixels\nHeight                           : 180 pixels\nDisplay aspect ratio             : 4:3\nFrame rate                       : 25.000 fps\nCompression mode                 : Lossy\nBits/(Pixel*Frame)               : 0.601\nStream size                      : 59.9 MiB (87%)\nTitle                            : ??????????(1\n\nAudio\nID                               : 1\nFormat                           : PCM\nFormat settings, Sign            : Unsigned\nCodec ID                         : 1\nCodec ID/Hint                    : Microsoft\nDuration                         : 12mn 54s\nBit rate mode                    : Constant\nBit rate                         : 88.2 Kbps\nChannel(s)                       : 1 channel\nSampling rate                    : 11.025 KHz\nBit depth                        : 8 bits\nStream size                      : 8.14 MiB (12%)\nInterleave, duration             : 40 ms (1.00 video frame)\nTitle                            : ??????????(1\n\n","torrent":{"xt":"urn:btih:f2f70ea9942e43c03667cdeda783bcc9a27e67e2","amp;dn":"Home+made+Girlfriend+fucked+by+her+BF%3DMTR%3D","amp;tr":["udp%3A%2F%2Ftracker.openbittorrent.com%3A80","udp%3A%2F%2Fopen.demonii.com%3A1337","udp%3A%2F%2Ftracker.coppersurfer.tk%3A6969","udp%3A%2F%2Fexodus.desync.com%3A6969"],"infoHash":"f2f70ea9942e43c03667cdeda783bcc9a27e67e2","infoHashBuffer":{"type":"Buffer","data":[242,247,14,169,148,46,67,192,54,103,205,237,167,131,188,201,162,126,103,226]},"announce":[],"urlList":[]}}